<?xml version="1.0" encoding="UTF-8"?>
<svg version="1.1" xmlns="http://www.w3.org/2000/svg" width="280" height="280">
<path d="M0 0 C1.4374101 0.16744024 2.87490854 0.33412406 4.3125 0.5 C8.80535108 1.10920015 11.98096482 1.99048241 16 4 C16.9590625 4.2165625 16.9590625 4.2165625 17.9375 4.4375 C20.6129935 5.16718005 22.63727027 6.55931114 25 8 C25.77085937 8.30808594 26.54171875 8.61617187 27.3359375 8.93359375 C35.46313952 12.1868579 47.92094969 17.84189938 52 26 C52.845625 26.495 53.69125 26.99 54.5625 27.5 C55.366875 27.995 56.17125 28.49 57 29 C57 29.66 57 30.32 57 31 C57.66 31 58.32 31 59 31 C60 32.66666667 61 34.33333333 62 36 C63.64429829 37.68873879 65.31384218 39.35305515 67 41 C68.09893341 42.17307831 69.18193586 43.36124801 70.25 44.5625 C70.75015625 45.12066406 71.2503125 45.67882813 71.765625 46.25390625 C73.12336006 48.17449984 73.46256063 49.73441507 74 52 C75.31266533 53.31266533 76.64569507 54.60533913 78 55.875 C79.92960477 57.92520507 80.81309399 59.48709744 82 62 C82.33 62.66 82.66 63.32 83 64 C86 70 86 70 87.0625 72.12890625 C87.70055776 73.40236319 88.34672594 74.67178151 89 75.9375 C90.12115341 78.2498789 91.04576133 80.61440332 92 83 C92.6492959 84.34187818 93.31731862 85.67479497 94 87 C96.08455873 91.08573512 97.68721319 94.89481993 98.9375 99.3125 C99.60161495 101.61736953 100.30398354 103.91195062 101.0625 106.1875 C102 109 102 109 102.5 111.1875 C102.98597878 113.31855049 102.98597878 113.31855049 105 116 C105.38063221 118.3260857 105.71269945 120.66055264 106 123 C106.30837738 124.33932531 106.6478694 125.67150727 107 127 C107.6934972 129.62359181 108.38055322 132.24842055 109.0625 134.875 C109.24876953 135.56980469 109.43503906 136.26460937 109.62695312 136.98046875 C110.45578129 140.20470139 111.00011581 142.90341383 110.99609375 146.2578125 C111.00030358 149.21311294 111.61175242 150.45835875 113 153 C114.73022724 161.86333389 115.04792792 172.20691267 113 181 C112.34 181 111.68 181 111 181 C110.9175 181.70125 110.835 182.4025 110.75 183.125 C109.60263558 187.52323027 107.19117306 190.80882694 104 194 C102.44234441 196.34494891 100.93961563 198.72070923 99.4375 201.1015625 C98.963125 201.72804687 98.48875 202.35453125 98 203 C97.34 203 96.68 203 96 203 C96 203.66 96 204.32 96 205 C95.34 205 94.68 205 94 205 C94 205.66 94 206.32 94 207 C93.34 207 92.68 207 92 207 C92 207.66 92 208.32 92 209 C90.9171875 209.3403125 90.9171875 209.3403125 89.8125 209.6875 C86.43417673 211.26405086 84.56203262 213.30986575 82 216 C77.45945946 220 77.45945946 220 74 220 C73.34 220.99 72.68 221.98 72 223 C70.1875 223.625 70.1875 223.625 68 224 C67.0925 224.185625 66.185 224.37125 65.25 224.5625 C64.13625 224.7790625 64.13625 224.7790625 63 225 C63 225.66 63 226.32 63 227 C61.88625 227.28875 60.7725 227.5775 59.625 227.875 C55.99708908 228.69241329 55.99708908 228.69241329 54 231 C52.00116131 231.34022786 50.00109278 231.67329097 48 232 C47.01 232.66 46.02 233.32 45 234 C42.66666667 234.33333333 40.33333333 234.66666667 38 235 C37.01 235.66 36.02 236.32 35 237 C33.96875 236.979375 32.9375 236.95875 31.875 236.9375 C28.41471869 236.99331099 26.8947149 237.29732087 23.8125 238.5 C18.9933797 240.27808922 14.5937428 240.20282539 9.50390625 240.0078125 C7.00058594 239.81220614 7.00058594 239.81220614 5 241 C2.23754983 241.09917351 -0.49910388 241.13981215 -3.26171875 241.1328125 C-4.08573685 241.13376923 -4.90975494 241.13472595 -5.75874329 241.13571167 C-7.50639929 241.13639305 -9.25405782 241.13454172 -11.00170898 241.13037109 C-13.6594015 241.12505619 -16.31692238 241.13029981 -18.97460938 241.13671875 C-20.67447954 241.13605729 -22.37434959 241.13477474 -24.07421875 241.1328125 C-25.25741951 241.13584885 -25.25741951 241.13584885 -26.46452332 241.13894653 C-32.7893913 241.11249803 -38.80628135 240.27050639 -45 239 C-46.010625 238.835 -47.02125 238.67 -48.0625 238.5 C-50.42624961 238.09765964 -52.68257472 237.59804523 -55 237 C-56.299375 236.7834375 -56.299375 236.7834375 -57.625 236.5625 C-60 236 -60 236 -62 234 C-64.00442018 233.71365426 -66.01101294 233.43076704 -68.02734375 233.24609375 C-71.28938051 232.83914659 -73.25668133 231.82887912 -76 230 C-77.32963517 229.6522081 -78.6633057 229.31958915 -80 229 C-84.52168745 227.0043447 -88.78424418 224.57058282 -93 222 C-95.36631225 220.72113245 -97.73418318 219.44590596 -100.109375 218.18359375 C-102 217 -102 217 -103 215 C-104.32467746 214.3162955 -105.65863633 213.65035814 -107 213 C-107.99 212.01 -107.99 212.01 -109 211 C-110.28200708 210.02878252 -111.57490209 209.07186376 -112.875 208.125 C-115.82822303 205.9314829 -118.48989496 203.70319004 -121 201 C-122.2396271 199.7603729 -123.4880428 198.5293873 -124.75 197.3125 C-129.08283144 192.85931213 -132.90786249 188.41124065 -136 183 C-136.66 182.34 -137.32 181.68 -138 181 C-138.17315986 178.3556435 -138.23218566 175.82865784 -138.1875 173.1875 C-138.18685547 172.47529297 -138.18621094 171.76308594 -138.18554688 171.02929688 C-138.15395907 167.23525021 -137.90568676 163.68795651 -137 160 C-137.515625 159.9175 -138.03125 159.835 -138.5625 159.75 C-143.94205906 158.09475106 -147.92863893 155.68016925 -151 151 C-151.70125 150.319375 -152.4025 149.63875 -153.125 148.9375 C-155 147 -155 147 -156 144 C-156.65035814 142.65863633 -157.3162955 141.32467746 -158 140 C-159.50938632 136.98122735 -159.14366437 133.86920415 -159.125 130.5625 C-159.12886719 129.88123047 -159.13273438 129.19996094 -159.13671875 128.49804688 C-159.12740685 123.74431987 -158.66843226 121.00264839 -156 117 C-155.64587656 115.67203709 -155.31478446 114.33783393 -155 113 C-154.3409159 111.33032028 -153.67349161 109.66392045 -153 108 C-152.67 106.9275 -152.34 105.855 -152 104.75 C-151 102 -151 102 -149 101 C-148.64984951 99.33678518 -148.31802943 97.66965451 -148 96 C-147.34 95.01 -146.68 94.02 -146 93 C-145.67 91.989375 -145.34 90.97875 -145 89.9375 C-144 87 -144 87 -142 85 C-141.505 83.515 -141.505 83.515 -141 82 C-140.2116218 80.28040155 -139.39659636 78.57289348 -138.5625 76.875 C-138.13066406 75.98554687 -137.69882813 75.09609375 -137.25390625 74.1796875 C-136 72 -136 72 -134 71 C-133.2884375 69.329375 -133.2884375 69.329375 -132.5625 67.625 C-131.1815125 64.42110899 -130.44040502 63.22819589 -128 61 C-127.71125 60.4225 -127.4225 59.845 -127.125 59.25 C-126.0512521 57.1025042 -124.86145054 55.22450137 -123.5 53.25 C-123.0771875 52.63640625 -122.654375 52.0228125 -122.21875 51.390625 C-121.8165625 50.93171875 -121.414375 50.4728125 -121 50 C-120.34 50 -119.68 50 -119 50 C-118.34 48.35 -117.68 46.7 -117 45 C-116.34 45 -115.68 45 -115 45 C-114.71125 44.360625 -114.4225 43.72125 -114.125 43.0625 C-113 41 -113 41 -111 40 C-109.31237149 38.3545622 -107.6459651 36.68711423 -106 35 C-105.34 34.34 -104.68 33.68 -104 33 C-103.505 32.01 -103.505 32.01 -103 31 C-102.34 31 -101.68 31 -101 31 C-101 30.34 -101 29.68 -101 29 C-99.35 28.34 -97.7 27.68 -96 27 C-96 26.34 -96 25.68 -96 25 C-93.63631237 23.23987034 -91.2779877 21.60543385 -88.8125 20 C-88.13896484 19.54882812 -87.46542969 19.09765625 -86.77148438 18.6328125 C-83.27410096 16.32624549 -79.97085832 14.40784977 -76 13 C-75.278125 12.608125 -74.55625 12.21625 -73.8125 11.8125 C-73.214375 11.544375 -72.61625 11.27625 -72 11 C-71.01 11.495 -71.01 11.495 -70 12 C-69.34 10.68 -68.68 9.36 -68 8 C-66.68 8.33 -65.36 8.66 -64 9 C-64 8.34 -64 7.68 -64 7 C-62.906875 6.690625 -61.81375 6.38125 -60.6875 6.0625 C-58.44592006 5.41662103 -56.2130649 4.7376883 -54 4 C-54 3.67 -54 3.34 -54 3 C-49.545 2.505 -49.545 2.505 -45 2 C-45 1.67 -45 1.34 -45 1 C-42.63320867 0.75870023 -40.26615001 0.52119118 -37.8984375 0.2890625 C-36.06925772 0.10663756 -34.24093817 -0.08484981 -32.4140625 -0.2890625 C-21.62111243 -1.42345665 -10.75338154 -1.53920952 0 0 Z M-132 67 C-131 69 -131 69 -131 69 Z M-153 109 C-152 111 -152 111 -152 111 Z M103 116 C104 118 104 118 104 118 Z M108 137 C109 139 109 139 109 139 Z M111 153 C112 157 112 157 112 157 Z M-137 178 C-136 180 -136 180 -136 180 Z M15 238 C19 239 19 239 19 239 Z " fill="#FBDD00" transform="translate(162,16)"/>
<path d="M0 0 C18.41952477 14.54231479 30.40776867 33.52819403 40.44580078 54.44726562 C41.19061663 55.99648259 41.95121073 57.53809628 42.71484375 59.078125 C52.74702125 79.97582382 67.44219072 119.54978685 59.50390625 142.59765625 C58.28296271 144.72268947 56.94057147 146.41747305 55.3125 148.25 C54.63445312 149.05953125 53.95640625 149.8690625 53.2578125 150.703125 C32.11313134 175.14023057 2.15314368 184.23801514 -29.3125 186.875 C-68.76131574 189.13273659 -105.54020693 183.61751372 -136.421875 156.8828125 C-138.0913816 155.37630506 -139.75155906 153.8593364 -141.3984375 152.328125 C-143.69444508 150.19107371 -143.69444508 150.19107371 -146.33203125 148.19140625 C-150.38377279 144.85191115 -152.32257163 141.27737982 -153.25 136.125 C-149.99513361 113.7025871 -133.83388761 89.71229385 -117.0625 74.9375 C-110.75645049 70.45688587 -104.18466741 70.41115609 -96.6875 71.25 C-87.68475439 74.07439078 -81.00376409 80.41468506 -75.0625 87.5 C-72.28978445 90.7890143 -69.75858882 92.66128241 -65.6875 94.25 C-65.42453125 93.69570312 -65.1615625 93.14140625 -64.890625 92.5703125 C-63.5472624 89.97954178 -62.02320658 87.5749881 -60.4375 85.125 C-59.81230469 84.1453125 -59.18710938 83.165625 -58.54296875 82.15625 C-57.42421096 80.403922 -56.30266813 78.65336144 -55.17578125 76.90625 C-51.41687466 70.89199946 -48.43069836 64.62120029 -45.57836914 58.13818359 C-43.78855035 54.17121412 -42.21044564 50.98165902 -38.6875 48.25 C-34.00867767 47.11802686 -31.82611837 46.82828949 -27.3125 48.5 C-24.52671861 50.35718759 -23.03425019 51.85447261 -22.2109375 55.16796875 C-21.66511259 63.51334439 -25.55364947 69.97202214 -29.46386719 77.03222656 C-30.7247808 79.31756958 -31.94626137 81.62111861 -33.1640625 83.9296875 C-37.64676977 92.33182536 -42.23368033 100.1737994 -48.6875 107.25 C-49.27144531 107.91386719 -49.85539062 108.57773438 -50.45703125 109.26171875 C-55.44167425 114.62893029 -60.31411525 117.76808789 -67.625 118.8125 C-77.34043065 118.22426103 -85.50172268 109.87334379 -91.66796875 103.0625 C-92.82102346 101.72505488 -93.96110533 100.37620389 -95.08203125 99.01171875 C-97.59752892 96.25140379 -99.45048882 94.46513238 -103.203125 93.8125 C-107.49675432 94.56861082 -108.99250174 97.6577906 -111.50390625 101 C-115.65692211 107.1812329 -119.18932676 113.68273979 -122.6875 120.25 C-123.51894531 121.77173828 -123.51894531 121.77173828 -124.3671875 123.32421875 C-127.49069291 128.95980282 -127.49069291 128.95980282 -127.6875 135.25 C-125.82362551 137.39464158 -125.82362551 137.39464158 -123.25 139.1875 C-122.32574219 139.87714844 -121.40148437 140.56679687 -120.44921875 141.27734375 C-119.53785156 141.92832031 -118.62648437 142.57929688 -117.6875 143.25 C-116.64529297 144.02537109 -116.64529297 144.02537109 -115.58203125 144.81640625 C-86.81005032 165.24061708 -52.14562767 167.99316743 -18.125 162.625 C-3.32032774 160.00183916 9.88381822 155.70244915 22.6875 147.7890625 C25.3125 146.25 25.3125 146.25 27.3125 146.25 C27.3125 145.59 27.3125 144.93 27.3125 144.25 C28.9921875 142.62890625 28.9921875 142.62890625 31.1875 140.8125 C33.77443722 138.66599116 35.42434374 137.08223438 37.3125 134.25 C38.37006631 121.98223086 34.62250788 109.19189825 31.875 97.3125 C31.58556519 96.03584473 31.58556519 96.03584473 31.2902832 94.73339844 C30.02448171 89.42663016 28.32107085 84.4847151 26.22485352 79.44897461 C25.20809225 76.99835414 24.34507328 74.51440522 23.5 72 C14.70761298 47.76981716 -1.72939178 22.37776717 -25.61328125 11.08984375 C-44.58675976 3.40755019 -65.86041019 4.65398374 -84.6875 12.25 C-93.15710157 16.14530199 -100.38503795 21.50927394 -107.6875 27.25 C-109.2653125 28.425625 -109.2653125 28.425625 -110.875 29.625 C-129.8391158 47.32484141 -141.14640641 72.37508944 -150.8046875 95.98046875 C-152.86349586 100.87213358 -154.72265557 104.76757778 -159.6875 107.25 C-163 107.625 -163 107.625 -166.6875 107.25 C-170.48419066 104.12827657 -173.47502135 101.16472239 -174.03125 96.15234375 C-173.59808968 91.2349897 -172.090562 87.33374843 -170.1875 82.8125 C-169.8272876 81.93650146 -169.4670752 81.06050293 -169.09594727 80.15795898 C-165.68196784 71.98473938 -161.82865898 64.07587759 -157.6875 56.25 C-157.36330078 55.63447266 -157.03910156 55.01894531 -156.70507812 54.38476562 C-154.73434851 50.65346468 -152.74121684 46.93629175 -150.6875 43.25 C-150.16800781 42.30511719 -149.64851563 41.36023438 -149.11328125 40.38671875 C-148.64277344 39.68160156 -148.17226562 38.97648437 -147.6875 38.25 C-147.0275 38.25 -146.3675 38.25 -145.6875 38.25 C-145.44257813 37.53328125 -145.19765625 36.8165625 -144.9453125 36.078125 C-142.58467509 30.77035642 -138.43349016 26.63643364 -134.6875 22.25 C-134.03265625 21.45851562 -133.3778125 20.66703125 -132.703125 19.8515625 C-100.70245054 -17.83518221 -40.76376577 -30.89845204 0 0 Z " fill="#1F2E34" transform="translate(195.6875,50.75)"/>
<path d="M0 0 C0.33 0 0.66 0 1 0 C1.9595707 7.59088966 2.65522668 15.35939061 2 23 C1.34 23.66 0.68 24.32 0 25 C0 20.38 0 15.76 0 11 C-0.66 11 -1.32 11 -2 11 C-1.34 9.02 -0.68 7.04 0 5 C-0.66 5 -1.32 5 -2 5 C-1.34 3.35 -0.68 1.7 0 0 Z " fill="#BD9E00" transform="translate(274,169)"/>
<path d="M0 0 C7.26 0 14.52 0 22 0 C22 0.33 22 0.66 22 1 C14.74 1 7.48 1 0 1 C0 0.67 0 0.34 0 0 Z " fill="#7F7000" transform="translate(136,257)"/>
<path d="M0 0 C4 1 4 1 4 1 Z " fill="#7F6B00" transform="translate(117,255)"/>
<path d="M0 0 C3 1 3 1 3 1 Z " fill="#7F7F00" transform="translate(158,15)"/>
<path d="M0 0 C3 1 3 1 3 1 Z " fill="#7F7F00" transform="translate(128,15)"/>
<path d="M0 0 C2 1 2 1 2 1 Z " fill="#7F7F00" transform="translate(202,250)"/>
<path d="M0 0 C2 1 2 1 2 1 Z " fill="#7F7F00" transform="translate(97,250)"/>
<path d="" fill="#7F6F00" transform="translate(0,0)"/>
<path d="M0 0 C2 1 2 1 2 1 Z " fill="#FFEF00" transform="translate(23,175)"/>
<path d="" fill="#7F6700" transform="translate(0,0)"/>
<path d="" fill="#FFEF00" transform="translate(0,0)"/>
<path d="" fill="#7F5F00" transform="translate(0,0)"/>
<path d="" fill="#BF8600" transform="translate(0,0)"/>
<path d="M0 0 C2 1 2 1 2 1 Z " fill="#7F6A00" transform="translate(188,24)"/>
<path d="M0 0 C2 1 2 1 2 1 Z " fill="#BF8A00" transform="translate(106,20)"/>
<path d="" fill="#7F7F00" transform="translate(0,0)"/>
<path d="" fill="#7F7F00" transform="translate(0,0)"/>
<path d="" fill="#FFDF00" transform="translate(0,0)"/>
<path d="" fill="#7F7F00" transform="translate(0,0)"/>
<path d="" fill="#7F7F00" transform="translate(0,0)"/>
<path d="" fill="#7F6600" transform="translate(0,0)"/>
<path d="" fill="#7F7F00" transform="translate(0,0)"/>
<path d="" fill="#7F7F00" transform="translate(0,0)"/>
<path d="" fill="#7F7F00" transform="translate(0,0)"/>
<path d="" fill="#7F7F00" transform="translate(0,0)"/>
<path d="" fill="#7F7F00" transform="translate(0,0)"/>
<path d="" fill="#FFBF00" transform="translate(0,0)"/>
<path d="" fill="#FFFF00" transform="translate(0,0)"/>
<path d="" fill="#7F7F00" transform="translate(0,0)"/>
<path d="" fill="#7F7F00" transform="translate(0,0)"/>
<path d="" fill="#FFAA00" transform="translate(0,0)"/>
<path d="" fill="#7F7F00" transform="translate(0,0)"/>
<path d="" fill="#FFFF00" transform="translate(0,0)"/>
<path d="" fill="#7F6F00" transform="translate(0,0)"/>
<path d="" fill="#FFBF00" transform="translate(0,0)"/>
<path d="" fill="#7F7F00" transform="translate(0,0)"/>
<path d="" fill="#7F7F00" transform="translate(0,0)"/>
<path d="" fill="#7F7F00" transform="translate(0,0)"/>
<path d="" fill="#FFFF00" transform="translate(0,0)"/>
<path d="" fill="#FFFF00" transform="translate(0,0)"/>
<path d="" fill="#FFFF00" transform="translate(0,0)"/>
<path d="" fill="#7F7F00" transform="translate(0,0)"/>
<path d="" fill="#7F5F00" transform="translate(0,0)"/>
<path d="" fill="#FFFF00" transform="translate(0,0)"/>
<path d="" fill="#7F6600" transform="translate(0,0)"/>
<path d="" fill="#7F7F00" transform="translate(0,0)"/>
<path d="" fill="#FFFF00" transform="translate(0,0)"/>
<path d="" fill="#7F7F00" transform="translate(0,0)"/>
<path d="" fill="#FFD400" transform="translate(0,0)"/>
</svg>
